<?xml version="1.0" encoding="utf-8"?>
<!-- Generator: Adobe Illustrator 25.0.1, SVG Export Plug-In . SVG Version: 6.00 Build 0)  -->
<svg version="1.1" id="Layer_1" xmlns="http://www.w3.org/2000/svg" xmlns:xlink="http://www.w3.org/1999/xlink" x="0px" y="0px"
	 viewBox="0 0 583.2 378.9" style="enable-background:new 0 0 583.2 378.9;" xml:space="preserve">
<style type="text/css">
	.st0{fill:none;stroke:#F2F2F2;stroke-width:10;stroke-linecap:round;}
	.st1{fill:none;stroke:#F2F2F2;stroke-width:8;stroke-linecap:round;}
	.st2{fill:#F2F2F2;}
	.st3{enable-background:new    ;}
	.st4{fill:#707070;}
</style>
<g id="Input" transform="translate(9 5)">
	<g transform="matrix(1, 0, 0, 1, -9, -5)">
		<path id="Frame-2" class="st0" d="M12,363.9V59h544c8.3,0,15,6.1,15,13.7v291.2 M201.8,196.2v47.8 M381,196.2v47.8 M13,279.5h87.2
			 M570.5,279.5h-86 M13,160h87.2 M570.5,160h-86"/>
	</g>
	<g transform="matrix(1, 0, 0, 1, -9, -5)">
		<path id="Path_9-2" class="st1" d="M118.1,313.6v15.2"/>
	</g>
	<g id="Joint" transform="translate(0 319.854)">
		<g transform="matrix(1, 0, 0, 1, -9, -324.85)">
			<rect id="Joint_1-2" y="355" class="st2" width="23.9" height="23.9"/>
		</g>
		<g transform="matrix(1, 0, 0, 1, -9, -324.85)">
			<rect id="Joint_2-2" x="559.3" y="355" class="st2" width="23.9" height="23.9"/>
		</g>
	</g>
	<rect id="Tag_2" x="4" y="241" class="st2" width="34" height="34"/>
	<rect id="Tag_1" x="528" y="155" class="st2" width="33" height="34"/>
	<path id="Tag" class="st2" d="M3-5h188c2.8,0,5,2.2,5,5v50l0,0H-2l0,0V0C-2-2.8,0.2-5,3-5z"/>
	<g class="st3">
		<path class="st4" d="M30,37V7.6h6.7V37H30z M39.8,37v-5.5h10.8V37H39.8z"/>
		<path class="st4" d="M65.4,37.5c-0.5,0-0.9,0-1.4,0c-0.4,0-0.9-0.1-1.3-0.1c-1.8-0.3-3.4-1-4.7-2c-1.3-1-2.3-2.1-3.2-3.5
			C54,30.5,53.4,29,53,27.3s-0.6-3.4-0.6-5.1c0-2.1,0.3-4.1,0.8-5.9c0.5-1.8,1.3-3.5,2.4-4.8c1.1-1.4,2.4-2.5,4-3.3
			c1.6-0.8,3.5-1.2,5.7-1.3v5.6v0c-1.3,0.1-2.3,0.5-3.1,1.1c-0.8,0.6-1.4,1.3-1.8,2.2c-0.4,0.9-0.7,1.9-0.9,3
			c-0.1,1.1-0.2,2.2-0.2,3.4c0,1.3,0.1,2.5,0.2,3.5c0.1,1.1,0.4,2,0.8,2.9c0.4,0.8,1,1.5,1.8,2.1c0.8,0.6,1.8,1,3.2,1.3L65.4,37.5z
			 M80.8,27.8c-0.5,1.8-1.2,3.5-2.2,4.9c-1,1.4-2.3,2.6-3.8,3.5c-1.5,0.9-3.3,1.3-5.4,1.3h-0.8V32c1.3-0.3,2.4-0.6,3.1-1.2
			c0.8-0.5,1.4-1.2,1.8-2c0.4-0.8,0.7-1.7,0.8-2.8c0.1-1,0.2-2.2,0.2-3.5c0-1.2,0-2.4-0.1-3.6c-0.1-1.1-0.4-2.2-0.8-3.1
			c-0.4-0.9-1-1.7-1.8-2.3c-0.8-0.6-1.9-1-3.3-1.1V6.8c4.5,0.4,7.8,1.9,9.8,4.6c2.1,2.7,3.1,6.3,3.1,10.7
			C81.5,24.1,81.3,26,80.8,27.8z"/>
		<path class="st4" d="M98.1,37.8c-0.3,0-0.5,0-0.8,0c-2.1,0-3.9-0.4-5.4-1.3c-1.4-0.9-2.6-2-3.5-3.4c-0.9-1.4-1.5-3-1.9-4.9
			c-0.4-1.8-0.6-3.7-0.6-5.6c0-1.9,0.2-3.7,0.5-5.4s0.9-3.2,1.7-4.6c0.8-1.4,1.9-2.5,3.2-3.5c1.3-1,3-1.6,4.9-2.1
			c0.7-0.2,1.3-0.3,2-0.3c0.3,0,0.5,0,0.6,0v5.5h0c-1.3,0.2-2.4,0.6-3.2,1.2c-0.8,0.6-1.4,1.3-1.8,2.2c-0.4,0.9-0.7,1.9-0.8,3
			c-0.1,1.1-0.2,2.3-0.2,3.5c0,1.3,0.1,2.5,0.2,3.6c0.1,1.1,0.4,2,0.8,2.8c0.4,0.8,1,1.5,1.8,2c0.8,0.5,1.9,0.9,3.3,1.2v5.6
			C98.6,37.7,98.4,37.7,98.1,37.8z M107,17.2c-0.3-1.5-0.9-2.7-1.6-3.5c-0.7-0.8-1.8-1.2-3.4-1.3V6.8c0.4,0.1,0.7,0.1,0.8,0.1
			c0.2,0,0.3,0.1,0.5,0.1c0.1,0,0.3,0.1,0.5,0.2c0.2,0.1,0.4,0.2,0.8,0.3c1.1,0.3,2.1,0.8,3.1,1.4c1,0.6,1.9,1.3,2.7,2.1
			c0.8,0.8,1.5,1.7,2,2.7c0.5,1,0.9,2,1,3.1L107,17.2z M113.3,37h-4.7l-0.3-3.5c-0.4,0.6-0.9,1.1-1.3,1.6c-0.4,0.5-0.9,0.9-1.4,1.3
			c-0.5,0.4-1,0.7-1.6,0.9c-0.6,0.2-1.2,0.3-1.9,0.4v-5.5c1-0.1,1.8-0.4,2.4-0.7c0.6-0.3,1.1-0.7,1.5-1.2c0.4-0.5,0.7-1.1,1-1.8
			c0.3-0.7,0.5-1.5,0.8-2.5h-5.2v-5.3h11.1L113.3,37z"/>
		<path class="st4" d="M119.3,37V7.6h6.6V37H119.3z"/>
		<path class="st4" d="M132.6,37V11.7l6.3,10.6l0.3,14.7H132.6z M150.2,37L132.7,7.6h6.2L156.5,37H150.2z M150.1,22.1l-0.3-14.5h6.6
			v25.1L150.1,22.1z"/>
	</g>
</g>
</svg>
